<?xml version="1.0" encoding="UTF-8" standalone="no"?>
<svg
   viewBox="0 0 40 40"
   version="1.1"
   id="svg4"
   sodipodi:docname="bars-solid.svg"
   width="40"
   height="40"
   inkscape:version="1.1.2 (b8e25be833, 2022-02-05)"
   xmlns:inkscape="http://www.inkscape.org/namespaces/inkscape"
   xmlns:sodipodi="http://sodipodi.sourceforge.net/DTD/sodipodi-0.dtd"
   xmlns="http://www.w3.org/2000/svg"
   xmlns:svg="http://www.w3.org/2000/svg">
  <defs
     id="defs8" />
  <sodipodi:namedview
     id="namedview6"
     pagecolor="#ffffff"
     bordercolor="#666666"
     borderopacity="1.0"
     inkscape:pageshadow="2"
     inkscape:pageopacity="0.0"
     inkscape:pagecheckerboard="0"
     showgrid="false"
     inkscape:zoom="1.6230469"
     inkscape:cx="223.96149"
     inkscape:cy="207.01805"
     inkscape:window-width="1920"
     inkscape:window-height="1017"
     inkscape:window-x="-8"
     inkscape:window-y="-8"
     inkscape:window-maximized="1"
     inkscape:current-layer="svg4" />
  <!-- Font Awesome Pro 5.15.4 by @fontawesome - https://fontawesome.com License - https://fontawesome.com/license (Commercial License) -->
  <path
     d="M 1.4330401,8.3164439 H 38.69211 c 0.791487,0 1.433043,-0.6912242 1.433043,-1.5439861 V 2.9124982 c 0,-0.8527623 -0.641556,-1.5439871 -1.433043,-1.5439871 H 1.4330401 c -0.79148625,0 -1.4330413521059,0.6912248 -1.4330413521059,1.5439871 v 3.8599596 c 0,0.8527619 0.6415551021059,1.5439861 1.4330413521059,1.5439861 z m 0,15.4398531 H 38.69211 c 0.791487,0 1.433043,-0.691225 1.433043,-1.543986 V 18.35235 c 0,-0.852761 -0.641556,-1.543985 -1.433043,-1.543985 H 1.4330401 c -0.79148625,0 -1.4330413521059,0.691224 -1.4330413521059,1.543985 v 3.859961 c 0,0.852761 0.6415551021059,1.543986 1.4330413521059,1.543986 z m 0,15.439852 H 38.69211 c 0.791487,0 1.433043,-0.691224 1.433043,-1.543986 v -3.859961 c 0,-0.852761 -0.641556,-1.543986 -1.433043,-1.543986 H 1.4330401 c -0.79148625,0 -1.4330413521059,0.691225 -1.4330413521059,1.543986 v 3.859961 c 0,0.852762 0.6415551021059,1.543986 1.4330413521059,1.543986 z"
     id="path2"
     style="stroke-width:0.0929674" />
</svg>
