<?xml version="1.0" standalone="no"?>
<!DOCTYPE svg PUBLIC "-//W3C//DTD SVG 1.0//EN" "http://www.w3.org/TR/2001/REC-SVG-20010904/DTD/svg10.dtd">
<svg xmlns="http://www.w3.org/2000/svg" xmlns:xlink="http://www.w3.org/1999/xlink" id="body_1" width="92" height="69">

<g transform="matrix(0.13476562 0 0 0.13476562 11.500002 -0)">
    <path d="M256 352C 239.47 352 222.94 346.578 208.84 335.59L208.84 335.59L0 173.2L0 400C 0 426.5 21.49 448 48 448L48 448L464 448C 490.51 448 512 426.51 512 400L512 400L512 173.2L303.2 335.7C 289.1 346.6 272.5 352 256 352zM16.29 145.3L228.48999 310.40002C 244.68 323.00003 267.36 323.00003 283.55 310.40002L283.55 310.40002L495.75 145.30002C 505.1 137.3 512 125 512 112C 512 85.49 490.5 64 464 64L464 64L48 64C 21.49 64 0 85.49 0 112C 0 125 6.01 137.3 16.29 145.3z" stroke="none" fill="#000000" fill-rule="nonzero" />
</g>
</svg>