<?xml version="1.0" encoding="UTF-8"?>
<svg xmlns="http://www.w3.org/2000/svg" xmlns:xlink="http://www.w3.org/1999/xlink" width="40px" height="46px" viewBox="0 0 40 45" version="1.1">
<g id="surface1">
<path style=" stroke:none;fill-rule:nonzero;fill:rgb(0%,0%,0%);fill-opacity:1;" d="M 35.714844 2.8125 L 4.285156 2.8125 C 1.917969 2.8125 0 4.703125 0 7.03125 L 0 37.96875 C 0 40.296875 1.917969 42.1875 4.285156 42.1875 L 16.539062 42.1875 L 16.539062 28.800781 L 10.914062 28.800781 L 10.914062 22.5 L 16.539062 22.5 L 16.539062 17.699219 C 16.539062 12.234375 19.84375 9.21875 24.902344 9.21875 C 27.328125 9.21875 29.859375 9.644531 29.859375 9.644531 L 29.859375 15.003906 L 27.070312 15.003906 C 24.316406 15.003906 23.460938 16.683594 23.460938 18.410156 L 23.460938 22.5 L 29.601562 22.5 L 28.617188 28.800781 L 23.460938 28.800781 L 23.460938 42.1875 L 35.714844 42.1875 C 38.082031 42.1875 40 40.296875 40 37.96875 L 40 7.03125 C 40 4.703125 38.082031 2.8125 35.714844 2.8125 Z M 35.714844 2.8125 "/>
</g>
</svg>
