<?xml version="1.0" encoding="UTF-8" standalone="no"?>
<!-- Created with Inkscape (http://www.inkscape.org/) -->

<svg
   version="1.1"
   id="svg9"
   xml:space="preserve"
   width="200"
   height="200"
   viewBox="0 0 200 200"
   sodipodi:docname="favicon_logo.svg"
   inkscape:version="1.1.2 (b8e25be833, 2022-02-05)"
   xmlns:inkscape="http://www.inkscape.org/namespaces/inkscape"
   xmlns:sodipodi="http://sodipodi.sourceforge.net/DTD/sodipodi-0.dtd"
   xmlns="http://www.w3.org/2000/svg"
   xmlns:svg="http://www.w3.org/2000/svg"><sodipodi:namedview
     id="namedview87"
     pagecolor="#ffffff"
     bordercolor="#666666"
     borderopacity="1.0"
     inkscape:pageshadow="2"
     inkscape:pageopacity="0.0"
     inkscape:pagecheckerboard="0"
     showgrid="false"
     inkscape:zoom="2.9380287"
     inkscape:cx="88.324529"
     inkscape:cy="100.40746"
     inkscape:window-width="1920"
     inkscape:window-height="1017"
     inkscape:window-x="-8"
     inkscape:window-y="-8"
     inkscape:window-maximized="1"
     inkscape:current-layer="g15" /><defs
     id="defs13"><clipPath
       clipPathUnits="userSpaceOnUse"
       id="clipPath25"><path
         d="M 0,595.28 H 655 V 0 H 0 Z"
         id="path23" /></clipPath><filter
       style="color-interpolation-filters:sRGB;"
       id="filter6887"
       x="-0.015512507"
       y="-0.017640577"
       width="1.031025"
       height="1.0352812"><feColorMatrix
         type="saturate"
         in="SourceGraphic"
         values="0"
         id="feColorMatrix6875" /><feColorMatrix
         values="3 0 0 0 -0.3 0 3 0 0 -0.3 0 0 3 0 -0.3 0 0 0 1 0"
         result="result0"
         id="feColorMatrix6877" /><feTurbulence
         baseFrequency="0.111"
         numOctaves="2"
         type="fractalNoise"
         id="feTurbulence6879" /><feColorMatrix
         values="0 0 0 0 0 0 0 0 0 0 0 0 0 0 0 0 0 0 255 -200"
         id="feColorMatrix6881" /><feGaussianBlur
         stdDeviation="1"
         id="feGaussianBlur6883" /><feComposite
         in2="result0"
         operator="atop"
         id="feComposite6885"
         result="fbSourceGraphic" /><feColorMatrix
         result="fbSourceGraphicAlpha"
         in="fbSourceGraphic"
         values="0 0 0 -1 0 0 0 0 -1 0 0 0 0 -1 0 0 0 0 1 0"
         id="feColorMatrix6937" /><feColorMatrix
         id="feColorMatrix6939"
         values="1 0 0 0 0 0 1 0 0 0 0 0 1 0 0 0 0 0 1000 -500 "
         in="fbSourceGraphic" /></filter></defs><g
     id="layer1"
     style="display:inline" /><g
     id="layer2"
     style="display:inline" /><g
     id="g15"
     transform="matrix(1.3333333,0,0,-1.3333333,0,793.70667)"
     style="display:inline;fill:#4d4d4d"><g
       id="g19"
       transform="matrix(0.66577878,0,0,0.53756875,-105.21507,359.21641)"
       style="fill:#4d4d4d"><g
         id="g21"
         clip-path="url(#clipPath25)"
         style="fill:#4d4d4d"><g
           id="g27"
           transform="translate(73.1548,125.3584)"
           style="fill:#4d4d4d"><path
             d="M 0,0 C 0.085,0.16 0.193,0.334 0.283,0.498 0.19,0.486 0.097,0.476 0.006,0.464 Z"
             style="fill:#4d4d4d;fill-opacity:1;fill-rule:nonzero;stroke:none"
             id="path29" /></g><g
           id="g31"
           transform="translate(274.4492,138.0762)"
           style="fill:#4d4d4d" /><g
           id="g35"
           transform="translate(192.2417,234.1309)"
           style="fill:#4d4d4d" /><g
           id="g39"
           transform="translate(99.5366,96.5156)"
           style="fill:#4d4d4d" /><g
           id="g43"
           transform="translate(130.6831,120.4082)"
           style="fill:#4d4d4d" /><g
           id="g47"
           transform="translate(162.0674,120.499)"
           style="fill:#4d4d4d" /><g
           id="g51"
           transform="translate(170.7046,121.1709)"
           style="fill:#4d4d4d" /><g
           id="g55"
           transform="translate(219.6338,121.1709)"
           style="fill:#4d4d4d" /><g
           id="g59"
           transform="translate(234.3809,106.1162)"
           style="fill:#4d4d4d" /><g
           id="g63"
           transform="translate(256.2354,97.1895)"
           style="fill:#4d4d4d" /><g
           id="g67"
           transform="translate(256.6548,121.1709)"
           style="fill:#4d4d4d" /><g
           id="g71"
           transform="translate(139.2031,84.7188)"
           style="fill:#4d4d4d" /><g
           id="g75"
           transform="translate(166.8164,61.9541)"
           style="fill:#4d4d4d" /><g
           id="g79"
           transform="translate(204.1289,47.9619)"
           style="fill:#4d4d4d" /><g
           id="g83"
           transform="translate(241.3076,66.3018)"
           style="fill:#4d4d4d" /><g
           id="g179"
           transform="translate(470.3467,129.2236)"
           style="fill:#4d4d4d" /><g
           id="g183"
           transform="translate(480.6924,132.9199)"
           style="fill:#4d4d4d" /><g
           id="g187"
           transform="translate(459.2627,132.9199)"
           style="fill:#4d4d4d" /><g
           id="g191"
           transform="translate(422.8398,181.3701)"
           style="fill:#4d4d4d" /><g
           id="g195"
           transform="translate(486.2705,151.2715)"
           style="fill:#4d4d4d" /><g
           id="g199"
           transform="translate(481.0596,178.2422)"
           style="fill:#4d4d4d" /><g
           id="g203"
           transform="translate(393.084,74.9551)"
           style="fill:#4d4d4d" /><g
           id="g207"
           transform="translate(414.6875,104.1318)"
           style="fill:#4d4d4d" /><g
           id="g211"
           transform="translate(459.4365,87.9131)"
           style="fill:#4d4d4d" /><g
           id="g215"
           transform="translate(493.2617,74.9551)"
           style="fill:#4d4d4d" /><g
           id="g219"
           transform="translate(520.6074,103.5977)"
           style="fill:#4d4d4d" /><g
           id="g223"
           transform="translate(541.6523,87.3105)"
           style="fill:#4d4d4d" /><g
           id="g227"
           transform="translate(562.0283,106.9922)"
           style="fill:#4d4d4d" /><g
           id="g231"
           transform="translate(593.1484,74.9551)"
           style="fill:#4d4d4d" /><g
           id="g235"
           transform="translate(431.5156,50.9355)"
           style="fill:#4d4d4d" /><g
           id="g239"
           transform="translate(439.9814,63.7002)"
           style="fill:#4d4d4d" /><g
           id="g243"
           transform="translate(459.5586,56.6045)"
           style="fill:#4d4d4d" /><g
           id="g247"
           transform="translate(466.0674,64.9502)"
           style="fill:#4d4d4d" /><g
           id="g251"
           transform="translate(470.0254,63.4648)"
           style="fill:#4d4d4d" /><g
           id="g255"
           transform="translate(493.8857,50.9355)"
           style="fill:#4d4d4d" /><g
           id="g259"
           transform="translate(504.999,50.9355)"
           style="fill:#4d4d4d" /><g
           id="g263"
           transform="translate(518.9961,50.9355)"
           style="fill:#4d4d4d" /><g
           id="g267"
           transform="translate(530.958,63.4648)"
           style="fill:#4d4d4d" /><g
           id="g271"
           transform="translate(51.5967,430.4497)"
           style="fill:#4d4d4d" /><g
           id="g275"
           transform="translate(147.7349,454.4619)"
           style="fill:#4d4d4d" /><g
           id="g279"
           transform="translate(247.1694,444.5249)"
           style="fill:#4d4d4d" /><g
           id="g283"
           transform="translate(84.1924,434.1538)"
           style="fill:#4d4d4d" /><g
           id="g289"
           transform="translate(317.916,388.9644)"
           style="fill:#4d4d4d" /><g
           id="g293"
           transform="translate(77.1543,387.853)"
           style="fill:#4d4d4d" /><g
           id="g297"
           transform="translate(106.5366,410.2598)"
           style="fill:#4d4d4d" /><g
           id="g301"
           transform="translate(120.2397,394.416)"
           style="fill:#4d4d4d" /><g
           id="g305"
           transform="translate(137.1484,401.8887)"
           style="fill:#4d4d4d" /><g
           id="g309"
           transform="translate(154.2251,401.8887)"
           style="fill:#4d4d4d" /><g
           id="g313"
           transform="translate(168.688,407.874)"
           style="fill:#4d4d4d" /><g
           id="g317"
           transform="translate(195.5635,409.8647)"
           style="fill:#4d4d4d" /><g
           id="g321"
           transform="translate(215.6626,410.0464)"
           style="fill:#4d4d4d" /><g
           id="g325"
           transform="translate(238.4512,390.3276)"
           style="fill:#4d4d4d" /><g
           id="g329"
           transform="translate(253.3848,394.4106)"
           style="fill:#4d4d4d" /></g></g><g
       id="g87"
       transform="matrix(0.66695776,0,0,0.73724111,4.8860125,470.25275)"
       style="fill:#4d4d4d"><path
         d="m 0,0 6.837,12.814 6.91,12.773 c 4.626,8.505 9.169,17.057 13.863,25.523 l 0.874,1.575 1.039,-1.5 8.866,-12.799 -2.144,0.028 24.022,34.441 1.395,2 1.481,-1.974 L 76.145,55.523 72.9,55.219 c 8.118,17.148 16.392,34.222 24.596,51.33 l 1.641,3.428 2.001,-3.237 21.567,-34.897 21.443,-34.974 -3.139,-0.085 c 5.377,9.745 10.894,19.415 16.336,29.125 l 1.04,1.858 1.368,-1.592 14.364,-16.73 c 4.78,-5.583 9.598,-11.133 14.328,-16.762 l 14.242,-16.837 7.114,-8.427 7.067,-8.465 -7.49,8.095 -7.444,8.135 -14.871,16.285 c -4.975,5.413 -9.86,10.904 -14.784,16.361 l -14.748,16.393 2.407,0.265 C 154.688,54.674 149.51,44.819 144.197,35.04 l -1.482,-2.727 -1.656,2.642 -21.793,34.758 -21.667,34.834 3.644,0.191 C 92.943,87.678 84.714,70.582 76.331,53.563 l -1.399,-2.836 -1.849,2.53 -12.798,17.509 2.875,0.025 -24.79,-33.895 -1.119,-1.527 -1.025,1.555 -8.568,13 1.912,0.077 C 24.735,41.614 19.747,33.314 14.845,24.967 L 7.458,12.462 Z"
         style="fill:#4d4d4d;fill-opacity:1;fill-rule:nonzero;stroke:none"
         id="path89" /></g><g
       id="g91"
       transform="matrix(0.66695776,0,0,0.73724111,45.093562,522.42435)"
       style="fill:#4d4d4d"><path
         d="m 0,0 -0.348,-35.563 43.932,-31.38 -29.985,47.767 z"
         style="fill:#4d4d4d;fill-opacity:1;fill-rule:nonzero;stroke:none"
         id="path93" /></g><g
       id="g95"
       transform="matrix(0.66695776,0,0,0.73724111,89.631667,536.443)"
       style="fill:#4d4d4d"><path
         d="M 0,0 13.946,-52.997 43.234,-68.338 Z"
         style="fill:#4d4d4d;fill-opacity:1;fill-rule:nonzero;stroke:none"
         id="path97" /></g><g
       id="g99"
       transform="matrix(0.66695776,0,0,0.73724111,110.92549,516.52074)"
       style="fill:#4d4d4d"><path
         d="M 0,0 3.138,-36.958 56.136,-61.713 1.742,-0.348"
         style="fill:#4d4d4d;fill-opacity:1;fill-rule:nonzero;stroke:none"
         id="path101" /></g><g
       id="g103"
       transform="matrix(0.66695776,0,0,0.73724111,23.954941,507.78148)"
       style="fill:#4d4d4d"><path
         d="M 0,0 -1.395,-13.598 20.57,-32.774 Z"
         style="fill:#4d4d4d;fill-opacity:1;fill-rule:nonzero;stroke:none"
         id="path105" /></g></g></svg>
