<?xml version="1.0" encoding="UTF-8" standalone="no"?>
<svg
   width="40px"
   height="46px"
   viewBox="0 0 40 45"
   version="1.1"
   id="svg5"
   sodipodi:docname="linkedin-brands.svg"
   inkscape:version="1.1.2 (b8e25be833, 2022-02-05)"
   xmlns:inkscape="http://www.inkscape.org/namespaces/inkscape"
   xmlns:sodipodi="http://sodipodi.sourceforge.net/DTD/sodipodi-0.dtd"
   xmlns="http://www.w3.org/2000/svg"
   xmlns:svg="http://www.w3.org/2000/svg">
  <defs
     id="defs9" />
  <sodipodi:namedview
     id="namedview7"
     pagecolor="#ffffff"
     bordercolor="#666666"
     borderopacity="1.0"
     inkscape:pageshadow="2"
     inkscape:pageopacity="0.0"
     inkscape:pagecheckerboard="0"
     showgrid="false"
     inkscape:zoom="18.065217"
     inkscape:cx="27.373045"
     inkscape:cy="20.425993"
     inkscape:window-width="1920"
     inkscape:window-height="1017"
     inkscape:window-x="-8"
     inkscape:window-y="-8"
     inkscape:window-maximized="1"
     inkscape:current-layer="svg5" />
  <g
     id="surface1"
     style="fill:#ffffff">
    <path
       style="stroke:none;fill-rule:nonzero;fill:#ffffff;fill-opacity:1"
       d="M 37.144531 2.8125 L 2.847656 2.8125 C 1.277344 2.8125 0 4.085938 0 5.652344 L 0 39.347656 C 0 40.914062 1.277344 42.1875 2.847656 42.1875 L 37.144531 42.1875 C 38.714844 42.1875 40 40.914062 40 39.347656 L 40 5.652344 C 40 4.085938 38.714844 2.8125 37.144531 2.8125 Z M 12.089844 36.5625 L 6.160156 36.5625 L 6.160156 17.773438 L 12.097656 17.773438 L 12.097656 36.5625 Z M 9.125 15.203125 C 7.222656 15.203125 5.6875 13.683594 5.6875 11.820312 C 5.6875 9.957031 7.222656 8.4375 9.125 8.4375 C 11.019531 8.4375 12.5625 9.957031 12.5625 11.820312 C 12.5625 13.695312 11.027344 15.203125 9.125 15.203125 Z M 34.3125 36.5625 L 28.382812 36.5625 L 28.382812 27.421875 C 28.382812 25.242188 28.339844 22.4375 25.304688 22.4375 C 22.214844 22.4375 21.742188 24.8125 21.742188 27.265625 L 21.742188 36.5625 L 15.8125 36.5625 L 15.8125 17.773438 L 21.5 17.773438 L 21.5 20.335938 L 21.582031 20.335938 C 22.375 18.859375 24.3125 17.304688 27.195312 17.304688 C 33.195312 17.304688 34.3125 21.199219 34.3125 26.261719 Z M 34.3125 36.5625 "
       id="path2" />
  </g>
  <path
     style="fill:#ffffff;stroke-width:0.055355"
     d="M 8.6299603,15.637952 C 7.3138151,15.444968 6.1141289,14.357517 5.8143469,13.085748 5.7157865,12.667625 5.7052206,12.051225 5.7895838,11.641112 5.982648,10.702575 6.7290628,9.7600791 7.6113117,9.3408218 8.1915276,9.0650949 8.5562401,8.9783598 9.1313324,8.9793339 c 1.1013956,0.00187 2.1343216,0.5318005 2.7648346,1.4184791 0.967246,1.360216 0.824851,3.061103 -0.355702,4.248811 -0.787405,0.792177 -1.8350713,1.149016 -2.9105047,0.991328 z"
     id="path4146"
     transform="translate(0,-0.5)" />
  <path
     style="fill:#000000;stroke-width:0.055355"
     d="m 6.1720818,27.677497 v -9.382671 h 2.9614922 2.961492 v 9.382671 9.382671 H 9.133574 6.1720818 Z"
     id="path4185"
     transform="translate(0,-0.5)" />
  <path
     style="fill:#000000;stroke-width:0.055355"
     d="M 8.6299603,15.637952 C 7.3138151,15.444968 6.1141289,14.357517 5.8143469,13.085748 5.7157865,12.667625 5.7052206,12.051225 5.7895838,11.641112 5.982648,10.702575 6.7290628,9.7600791 7.6113117,9.3408218 8.2091668,9.0567125 8.5661519,8.9755003 9.188929,8.9819223 c 2.093905,0.021592 3.697253,1.9807757 3.272541,3.9988237 -0.275842,1.310683 -1.395929,2.393942 -2.7190503,2.629652 -0.4816802,0.08581 -0.6814122,0.09076 -1.1124594,0.02755 z"
     id="path4298"
     transform="translate(0,-0.5)" />
  <path
     style="fill:#000000;stroke-width:0.055355"
     d="m 6.1720818,27.677497 v -9.382671 h 2.9614922 2.961492 v 9.382671 9.382671 H 9.133574 6.1720818 Z"
     id="path4337"
     transform="translate(0,-0.5)" />
  <path
     style="fill:#000000;stroke-width:0.055355"
     d="m 15.859206,27.677497 v -9.382671 h 2.795427 2.795427 v 1.273164 c 0,1.019332 0.01461,1.273165 0.07326,1.273165 0.04029,0 0.191817,-0.173512 0.336718,-0.385582 0.91189,-1.334597 2.583952,-2.319396 4.335007,-2.553201 0.679805,-0.09077 2.322735,-0.03183 3.006678,0.107868 2.887694,0.589811 4.389582,2.350727 4.893643,5.737641 0.166275,1.117245 0.195346,2.267538 0.196194,7.762949 l 8.57e-4,5.549338 h -2.930181 -2.930182 l -0.02386,-5.438628 c -0.02589,-5.901499 -0.02745,-5.93292 -0.340125,-6.844541 -0.172771,-0.503729 -0.39597,-0.858903 -0.744795,-1.185189 -0.525238,-0.491298 -1.075034,-0.665694 -2.0814,-0.660224 -1.912502,0.0104 -2.920701,0.844336 -3.361203,2.780244 -0.117603,0.516839 -0.120144,0.625092 -0.139346,5.937388 l -0.01956,5.41095 h -2.931281 -2.931281 z"
     id="path4376"
     transform="translate(0,-0.5)" />
</svg>
