<?xml version="1.0" encoding="UTF-8"?>
<svg xmlns="http://www.w3.org/2000/svg" xmlns:xlink="http://www.w3.org/1999/xlink" width="50px" height="50px" viewBox="0 0 50 50" version="1.1">
<g id="surface1">
<path style=" stroke:none;fill-rule:nonzero;fill:rgb(0%,0%,0%);fill-opacity:1;" d="M 49.921875 37.792969 L 47.652344 47.636719 C 47.332031 49.027344 46.109375 50 44.675781 50 C 20.039062 50 0 29.960938 0 5.320312 C 0 3.890625 0.972656 2.664062 2.367188 2.347656 L 12.210938 0.078125 C 13.640625 -0.253906 15.105469 0.488281 15.703125 1.847656 L 20.246094 12.445312 C 20.777344 13.691406 20.417969 15.144531 19.371094 16.003906 L 14.109375 20.226562 C 17.429688 26.984375 22.925781 32.480469 29.6875 35.800781 L 33.992188 30.546875 C 34.839844 29.496094 36.304688 29.128906 37.554688 29.671875 L 48.148438 34.210938 C 49.421875 34.882812 50.253906 36.367188 49.921875 37.792969 Z M 49.921875 37.792969 "/>
</g>
</svg>
