<?xml version="1.0" encoding="UTF-8" standalone="no"?>
<svg
   viewBox="0 0 30 30"
   version="1.1"
   id="svg4"
   sodipodi:docname="readme-brands.svg"
   width="30"
   height="30"
   inkscape:version="1.1.2 (b8e25be833, 2022-02-05)"
   xmlns:inkscape="http://www.inkscape.org/namespaces/inkscape"
   xmlns:sodipodi="http://sodipodi.sourceforge.net/DTD/sodipodi-0.dtd"
   xmlns="http://www.w3.org/2000/svg"
   xmlns:svg="http://www.w3.org/2000/svg">
  <defs
     id="defs8" />
  <sodipodi:namedview
     id="namedview6"
     pagecolor="#ffffff"
     bordercolor="#666666"
     borderopacity="1.0"
     inkscape:pageshadow="2"
     inkscape:pageopacity="0.0"
     inkscape:pagecheckerboard="0"
     showgrid="false"
     inkscape:zoom="1.6230469"
     inkscape:cx="256"
     inkscape:cy="207.01805"
     inkscape:window-width="1920"
     inkscape:window-height="1017"
     inkscape:window-x="-8"
     inkscape:window-y="-8"
     inkscape:window-maximized="1"
     inkscape:current-layer="svg4" />
  <!-- Font Awesome Pro 5.15.4 by @fontawesome - https://fontawesome.com License - https://fontawesome.com/license (Commercial License) -->
  <path
     d="m 19.876545,7.4707434 c 0,-2.4246303 -2.276504,-4.3901252 -5.084805,-4.3901252 -2.808301,0 -5.0848054,1.9654949 -5.0848054,4.3901252 0,2.4246384 2.2765044,4.3901336 5.0848054,4.3901336 2.808301,0 5.084805,-1.9654952 5.084805,-4.3901336 z m -6.271793,6.6355026 c -3.142513,-1.660931 -8.2326222,-2.117323 -10.7940931,-2.24308 -0.8607125,-0.04205 -1.578413,0.524066 -1.578413,1.238837 v 10.188751 c 0,0.655325 0.6138904,1.201803 1.4030929,1.237011 2.3125258,0.104724 6.9910845,0.488404 10.2247002,1.894616 0.4963,0.215851 1.084761,-0.07823 1.084761,-0.542818 V 14.630312 c -5.25e-4,-0.213563 -0.122879,-0.40928 -0.340048,-0.524066 z m 13.168069,-2.24308 c -2.560945,0.125303 -7.65158,0.582149 -10.793567,2.24308 -0.217163,0.114786 -0.339517,0.318286 -0.339517,0.531847 v 11.240098 c 0,0.465992 0.590052,0.760495 1.087935,0.54419 3.233091,-1.40484 7.909001,-1.788521 10.220994,-1.893244 0.78921,-0.03569 1.403093,-0.58215 1.403093,-1.237466 V 13.102003 c -6.33e-4,-0.714771 -0.718225,-1.28091 -1.578938,-1.238837 z"
     id="path2"
     style="stroke-width:0.0492158" />
</svg>
