<?xml version="1.0" standalone="no"?>
<!DOCTYPE svg PUBLIC "-//W3C//DTD SVG 1.0//EN" "http://www.w3.org/TR/2001/REC-SVG-20010904/DTD/svg10.dtd">
<svg xmlns="http://www.w3.org/2000/svg" xmlns:xlink="http://www.w3.org/1999/xlink" id="body_1" width="55" height="41">

<g transform="matrix(2.0370374 0 0 2.05 0 0)">
	<g transform="matrix(0.13170731 0 0 0.12987015 0 0)">
		<g transform="matrix(0.30078125 0 0 0.30078125 15.875006 -0)">
            <path d="M259.3 17.8L194 150.2L47.9 171.5C 21.7 175.3 11.200001 207.6 30.2 226.1L30.2 226.1L135.9 329.1L110.899994 474.6C 106.399994 500.9 134.09999 520.6 157.29999 508.30002L157.29999 508.30002L288 439.6L418.7 508.3C 441.90002 520.5 469.6 500.9 465.1 474.59998L465.1 474.59998L440.1 329.09998L545.8 226.09998C 564.8 207.59998 554.3 175.29997 528.1 171.49997L528.1 171.49997L382 150.2L316.7 17.8C 305 -5.800001 271.1 -6.1000004 259.30002 17.8L259.30002 17.8L259.3 17.8z" stroke="none" fill="#000000" fill-rule="nonzero" />
		</g>
	</g>
</g>
</svg>