<?xml version="1.0" encoding="UTF-8" standalone="no"?>
<svg
   width="50px"
   height="50px"
   viewBox="0 0 50 50"
   version="1.1"
   id="svg5"
   sodipodi:docname="twitter-brands.svg"
   inkscape:version="1.1.2 (b8e25be833, 2022-02-05)"
   xmlns:inkscape="http://www.inkscape.org/namespaces/inkscape"
   xmlns:sodipodi="http://sodipodi.sourceforge.net/DTD/sodipodi-0.dtd"
   xmlns="http://www.w3.org/2000/svg"
   xmlns:svg="http://www.w3.org/2000/svg">
  <defs
     id="defs9" />
  <sodipodi:namedview
     id="namedview7"
     pagecolor="#ffffff"
     bordercolor="#666666"
     borderopacity="1.0"
     inkscape:pageshadow="2"
     inkscape:pageopacity="0.0"
     inkscape:pagecheckerboard="0"
     showgrid="false"
     inkscape:zoom="16.62"
     inkscape:cx="25"
     inkscape:cy="24.969916"
     inkscape:window-width="1920"
     inkscape:window-height="1017"
     inkscape:window-x="-8"
     inkscape:window-y="-8"
     inkscape:window-maximized="1"
     inkscape:current-layer="svg5" />
  <g
     id="surface1"
     style="fill:#ffffff">
    <path
       style="stroke:none;fill-rule:nonzero;fill:#ffffff;fill-opacity:1"
       d="M 44.859375 14.816406 C 44.890625 15.261719 44.890625 15.703125 44.890625 16.148438 C 44.890625 29.695312 34.582031 45.304688 15.734375 45.304688 C 9.929688 45.304688 4.535156 43.625 0 40.703125 C 0.824219 40.800781 1.617188 40.832031 2.476562 40.832031 C 7.265625 40.832031 11.675781 39.214844 15.195312 36.453125 C 10.691406 36.359375 6.917969 33.40625 5.617188 29.347656 C 6.25 29.441406 6.882812 29.503906 7.550781 29.503906 C 8.472656 29.503906 9.390625 29.378906 10.246094 29.15625 C 5.550781 28.203125 2.03125 24.078125 2.03125 19.097656 L 2.03125 18.972656 C 3.394531 19.734375 4.980469 20.210938 6.664062 20.273438 C 3.902344 18.433594 2.09375 15.292969 2.09375 11.738281 C 2.09375 9.835938 2.601562 8.089844 3.488281 6.566406 C 8.535156 12.785156 16.117188 16.847656 24.617188 17.289062 C 24.460938 16.527344 24.367188 15.734375 24.367188 14.941406 C 24.367188 9.296875 28.933594 4.695312 34.613281 4.695312 C 37.5625 4.695312 40.226562 5.933594 42.101562 7.929688 C 44.414062 7.488281 46.636719 6.628906 48.605469 5.457031 C 47.84375 7.835938 46.222656 9.835938 44.097656 11.105469 C 46.160156 10.882812 48.160156 10.3125 50 9.519531 C 48.605469 11.546875 46.859375 13.355469 44.859375 14.816406 Z M 44.859375 14.816406 "
       id="path2" />
  </g>
</svg>
